<svg width="164" height="48" xmlns="http://www.w3.org/2000/svg"><g fill="#B5B9C0" fill-rule="evenodd"><path d="M66.902 14.007c.205-2.18-1.493-1.767-2.856-1.784-.214 0-.285-.072-.285-.322.117-.28-.275-1.21.357-1.105-.245.11 10.504.11 10.636 0 .507-.084.212.902.286 1.141.112.534-1.538.198-1.785.286-2.8.263-1.52 2.878-1.856 6.032v4.427c.171 3.651-.447 7.07 1.356 9.886 2.36 3.053 7.02 2.715 9.637.5 2.811-2.295 1.955-9.008 2.072-12.458-.327-3.464.502-8.167-1.856-8.387-.247-.056-1.621.201-1.572-.25.061-.23-.207-1.27.287-1.177.355 0 1.997.107 4.354.107 2.213 0 3.354-.107 3.64-.107.632-.073.264.799.358 1.105.16.576-1.258.235-1.5.322-1.284 0-1.427.999-1.499 1.393-.658 7.947 2.837 23.227-9.78 23.093-13.027.497-9.502-13.163-9.994-22.702"/><path d="M90.676 28.214c.554.895.27 2.642 1.57 4.354 2.239 3.705 8.968 3.629 9.352-1.607.39-7.407-13.017-4.792-12.28-13.884-.18-6.082 7.896-8.044 12.065-5.854.846.391.979-.793 1.714-.785.214 0 .285.214.285.57 0 .572.571 5.57.571 5.926.04.303-.607.33-.786.43-.142.034-.285 0-.356-.216-.357-1-.928-2.426-2.213-3.782-2.464-2.886-7.857-1.27-7.71 2.104-.088 7.58 12.728 3.559 12.278 13.315.11 8.262-9.154 9.794-14.492 5.782-.212 0-.356.287-.57.644-.3.621-1.091.587-1.071-.144.072-.427.57-6.21.643-6.64-.03-.523.75-.168 1-.213"/><path d="M129.582 30.356c-2.596 6.983-14.986 8.392-19.918 2.998-7.803-7.868-3.287-23.194 9.067-22.986 3.284-.001 5.925.998 7.21 1.71.5.288.642.288.714 0l.286-.926c.071-.213.144-.213.57-.213.43 0 .5.069.5.57 0 .642.714 6.354.858 7.425.164.472-.59.43-.822.57-.178.071-.285-.071-.391-.356-.43-1.285-1.286-3.07-2.785-4.64-6.377-6.173-14.804-.942-14.277 7.638-.213 10.862 10.662 16.585 17.954 7.924.353-.688.716.11 1.034.286M56.136 26.872c-1.451 3.539-4.228 8.383-9.236 11.436-7.003-4.157-10.347-12.65-11.228-18.247 3.934-1.406 5.925 1.603 11.177-.513 1.473.13 3.614 1.041 4.742.87 1.944-.066 4.504-1.648 6.49-.396-.12.794-.602 3.573-1.945 6.85zM35.363 14.795l7.296 1.596a5.33 5.33 0 00-.18.344l-7.14-.954c.002-.315.01-.649.024-.986zm.252-2.667l7.578 3.51a5.083 5.083 0 00-.4.528L35.4 14.095c.043-.633.112-1.291.215-1.967zm.199-1.137c1.187-.4 6.78 3.65 7.776 4.236-.085.076-.16.155-.237.235l-7.613-4.074c.024-.132.046-.264.074-.397zm3.278.342c2.357-.913 4.03 1.839 5.338 3.283a4.88 4.88 0 00-.666.464l-5.127-3.753c.149.003.298.008.455.006zm3.965-.667l2.06 3.62a4.623 4.623 0 00-.409.18l-2.621-3.504c.34-.09.663-.19.97-.296zm2.725-1.316l.628 4.633a4.936 4.936 0 00-1.006.205l-1.728-3.756c.865-.35 1.571-.739 2.106-1.082zm1.081-.793c.887-.044.074 5.024.187 5.413-.119-.01-.242-.01-.363 0 .105-.389-.679-5.464.176-5.413zm1.077.793c.738.476 1.466.83 2.09 1.08l-1.725 3.75a4.927 4.927 0 00-.991-.199l.626-4.631zm2.712 1.313c.44.15.785.243.973.288l-2.624 3.51a3.674 3.674 0 00-.41-.178l2.06-3.62zm1.754.448c.856.15 1.767.223 2.668.197l-5.131 3.758a5.01 5.01 0 00-.662-.456l3.125-3.499zm3.858.128c.775-.08 1.356-.2 1.65-.272.028.134.05.265.076.397l-7.631 4.084a3.355 3.355 0 00-.241-.235l6.146-3.974zm1.854.868c.107.69.178 1.365.222 2.01l-7.388 2.069a4.998 4.998 0 00-.426-.563l7.592-3.516zm.283 3.684l-7.133.953a5.528 5.528 0 00-.18-.337l7.29-1.596c.013.338.021.667.023.98zm-2.176 1.53c-1.539-.039-2.984.795-4.527.876a4.931 4.931 0 00-.32-1.204l7.018-.528c-.01.487-.031.935-.06 1.335a5.352 5.352 0 00-2.111-.48zm-.03.898c-.975-.026-2.018.317-2.959.588l.054.202-.054-.202c-1.831.643-3.598.081-5.692-.518-1.68-.31-4.04 1.038-5.415.822-2.078-.146-4.542-1.605-6.638-.373-.015-.139-.03-.286-.044-.449 1.344-.762 3.106-.582 4.497-.087l.057-.2-.057.2c2.554 1.171 4.822-.435 7.57-.398 3.869 2.07 7.093-1.002 10.787.437l-.044.471a4.6 4.6 0 00-2.062-.493zm-9.305-.886v.03-.03c-1.426.063-3.225.968-4.418.875.54-4.992 8.226-4.974 8.802-.014-.98.042-2.473-.5-3.694-.8l-.004.01.001-.01a4.078 4.078 0 00-.687-.061zm-11.544-.874l7.02.53c-.155.382-.26.79-.316 1.218-2.097-.23-4.53-1.551-6.639-.361-.03-.412-.054-.878-.065-1.387zm20.853 2.66c-.971-.023-2.024.32-2.961.592l.052.201-.052-.201c-2.354.95-4.367-.61-6.873-.547-2.39.63-4.144 1.272-6.341.436l-.057.2.057-.2c-1.388-.462-3.056-.739-4.417.027-.017-.105-.038-.257-.065-.45 1.318-.78 3.008-.548 4.366-.078l.058-.2-.058.2c2.557 1.17 4.824-.437 7.57-.398 3.856 2.075 7.064-1.015 10.728.45-.024.185-.044.333-.06.437a4.26 4.26 0 00-1.947-.468zm2.593-4.4a24.486 24.486 0 00-.562-4.271c-3.807 1.034-8.285.322-11.374-2.448-2.825 2.667-7.62 3.524-11.358 2.485-1.79 10.298 1.074 21.336 11.402 28.311 9.108-5.922 11.987-15.511 11.892-24.076z"/><path d="M52.81 24.564c-.094.195-1.654.067-1.83.103-.623-.092-.274-.85.257-.678l.003.003.004-.003c.402.072 2.067-.302 1.566.575zm-.314.582c-.316.113-1.456.301-1.532-.228.06-.002 1.573.007 1.633-.007a.437.437 0 01-.1.235zm-.397 4.092l-.645.002-.172-3.748c.03-.007.963.007.99-.008l-.173 3.754zm.426.528c.023.464-.958.214-1.2.276l-.001.125v-.125c-1.117-.511 1.22-.877 1.2-.276zm-.749 2.318c-.382.055-.188-1.615-.273-1.79h.547c-.084.18.11 1.84-.274 1.79zM50.5 23.195c.01-.495.443-.799.353-1.337.155.064.357.175.507.333-.127.192-.762.59-.301 1.544a.894.894 0 00-.214.017.59.59 0 01-.345-.557zm1.388-1.355a.613.613 0 00.019-.309c.75.422.625 1.841.075 2.203h-.091c-.445-.33.038-1.088.214-1.498-.447.355-.815 1.153-.45 1.498l-.294.001c-.626-1.237.308-1.123.527-1.895zm.753.215c.108-.131.208-.215.29-.267-.009 1.061.66 1.631-.224 1.964-.089-.029-.3-.014-.393-.018.303-.252.54-1.263.327-1.679zm.333 1.84c1.026-.544-.083-1.357.309-2.463-.296.052-.334-.035-.79.41-.581-.796-.776-.74-1.296-1.088.21.338.697.829.327 1.243-.53-.454-.747-.42-1.08-.529.556.766-.77 1.791.143 2.422-.305.246-.237.787.114.955.027.298.157.487.326.578l.177 3.842c-.554.11-.512.953.047 1.015-.17 2.771 1.224 2.767 1.054.002.588-.043.626-.93.046-1.023l.178-3.84c.23-.103.316-.315.336-.592.351-.163.39-.693.109-.932zM42.655 24.675l-1.59.004c-.625-.091-.273-.853.257-.678l.001.004.004-.004c.466-.057 2.545-.05 1.328.674zm-.07.486c-.32.109-1.454.3-1.537-.23.064.003 1.57.003 1.634-.005a.44.44 0 01-.098.235zm-.402 4.09l-.643.002-.174-3.75c.034-.003.955.003.99-.004l-.173 3.752zm.426.527c.022.464-.956.214-1.199.275v.126-.126c-1.122-.508 1.219-.874 1.2-.275zm-.747 2.318c-.386.055-.192-1.614-.276-1.79l.55-.001c-.084.18.106 1.841-.274 1.79zm-1.279-8.888c.011-.496.446-.799.355-1.338.155.066.358.175.506.331-.126.197-.764.589-.303 1.548a.54.54 0 00-.198.025c-.029-.012-.36-.144-.36-.566zm1.389-1.354a.618.618 0 00.017-.313c.75.42.629 1.844.076 2.206h-.089c-.446-.33.037-1.086.211-1.498-.447.355-.81 1.155-.45 1.498l-.293.002c-.627-1.237.307-1.125.528-1.895zm.752.215c.107-.132.21-.215.29-.268-.009 1.06.66 1.631-.224 1.962-.091-.026-.298-.013-.393-.016.306-.253.54-1.264.327-1.678zm.334 1.84c1.028-.547-.086-1.36.308-2.464-.297.054-.332-.037-.789.41-.583-.796-.774-.742-1.292-1.084.211.338.688.827.322 1.238-.527-.452-.747-.418-1.08-.528.553.751-.77 1.82.144 2.424-.312.244-.232.786.112.951.027.27.147.479.327.579l.178 3.842c-.55.108-.514.954.046 1.013-.171 2.77 1.225 2.773 1.055.005.59-.037.623-.93.045-1.024l.176-3.834c.234-.1.317-.306.339-.588.337-.175.399-.694.11-.94zM48.352 25.305c-.163.3-2.316.102-2.594.158-.678.01-.68-1.056-.001-1.048 0 0 1.482 0 1.485-.002.569-.105 1.7.103 1.11.892zm-.814.885c-.473-.076-1.735.28-1.847-.481.094.016 2.302.004 2.373-.005-.08.242-.301.486-.526.486zm-.168 5.665l-.998.002-.249-5.422c.08.015 1.427.016 1.497-.005l-.25 5.425zm.597.687c.052.661-2.21.664-2.16.003-.13-.649 2.286-.65 2.16-.003zm-.765 2.96c-.896 1.464-.696-1.978-.767-2.272l.871-.001-.104 2.273zm-2.167-12.149c.008-.721.674-1.169.476-1.954.222.082.558.24.796.507-.246.383-1.16.822-.44 2.255a1.038 1.038 0 00-.304.028.867.867 0 01-.528-.836zm1.854-1.909c.07-.193.044-.408-.005-.59 1.145.523 1.152 2.755.252 3.307h-.064c-.371-.265-.115-1.583.052-1.577-.277.076-.602 1.093-.215 1.577h-.325c-.634-.576.085-1.496.386-2.146-.694.547-1.111 1.678-.598 2.146h-.197c-.933-1.779.399-1.636.714-2.717zm1.611.12c-.2 1.373.59 2.13-.36 2.611-.113-.03-.545-.01-.665-.014.36-.365.844-1.445.544-2.19.184-.218.357-.34.481-.406zm-.084 2.73c1.023-.679-.061-1.65.447-3.079-.315.06-.37-.038-.946.495-.68-1.15-1.124-1.2-1.67-1.572.227.372.689 1.033.221 1.572-.656-.6-1.014-.58-1.372-.687.693 1.048-1.129 2.489.19 3.303-.455.315-.372 1.088.13 1.307.042.288.215.583.459.723l-.009.003.255 5.511c-.77.113-.719 1.31.06 1.355.176.526-.302 2.918.69 2.862.99.06.516-2.345.689-2.86.818-.013.872-1.276.064-1.362l.252-5.526c.246-.151.427-.444.465-.72.52-.239.548-1.036.075-1.325z"/></g></svg>